<svg width="20" height="21" viewBox="0 0 20 21" fill="none" xmlns="http://www.w3.org/2000/svg">
<g clip-path="url(#clip0_307_1990)">
<path d="M6.66747 10.2798C6.66747 8.43899 8.15953 6.94619 10.0004 6.94619C11.8413 6.94619 13.3341 8.43899 13.3341 10.2798C13.3341 12.1206 11.8413 13.6134 10.0004 13.6134C8.15953 13.6134 6.66747 12.1206 6.66747 10.2798ZM4.865 10.2798C4.865 13.1158 7.16429 15.415 10.0004 15.415C12.8365 15.415 15.1358 13.1158 15.1358 10.2798C15.1358 7.44379 12.8365 5.14459 10.0004 5.14459C7.16429 5.14459 4.865 7.44379 4.865 10.2798ZM14.139 4.94139C14.139 5.60379 14.6758 6.14139 15.3382 6.14219C16.0006 6.14219 16.5383 5.60539 16.5391 4.94299C16.5399 4.28059 16.0022 3.74299 15.3398 3.74219H15.339C14.6766 3.74219 14.139 4.27899 14.139 4.94139ZM5.96024 18.4198C4.985 18.375 4.45538 18.2126 4.10336 18.0758C3.63615 17.8942 3.30333 17.6774 2.95292 17.3278C2.6025 16.9782 2.3857 16.6454 2.20489 16.1782C2.06728 15.8262 1.90488 15.2958 1.86087 14.3214C1.81207 13.267 1.80247 12.951 1.80247 10.2798C1.80247 7.60859 1.81287 7.29339 1.86087 6.23819C1.90568 5.26299 2.06888 4.73419 2.20489 4.38139C2.3865 3.91419 2.6033 3.58139 2.95292 3.23099C3.30253 2.88059 3.63535 2.66379 4.10336 2.48299C4.45538 2.34539 4.9858 2.18299 5.96024 2.13899C7.01468 2.09019 7.33069 2.08059 10.0004 2.08059C12.6701 2.08059 12.9869 2.09099 14.0422 2.13899C15.0174 2.18379 15.5462 2.34699 15.899 2.48299C16.3663 2.66379 16.6991 2.88139 17.0495 3.23099C17.3999 3.58059 17.6159 3.91419 17.7975 4.38139C17.9351 4.73339 18.0975 5.26379 18.1415 6.23819C18.1903 7.29339 18.1999 7.60859 18.1999 10.2798C18.1999 12.951 18.1903 13.2662 18.1415 14.3214C18.0967 15.2966 17.9343 15.8262 17.7975 16.1782C17.6159 16.6454 17.3991 16.9782 17.0495 17.3278C16.6999 17.6774 16.3663 17.8942 15.899 18.0758C15.547 18.2134 15.0166 18.3758 14.0422 18.4198C12.9877 18.4686 12.6717 18.4782 10.0004 18.4782C7.32909 18.4782 7.01388 18.4678 5.96024 18.4198ZM5.87784 0.340585C4.81299 0.389385 4.08576 0.558185 3.45054 0.805385C2.79211 1.05979 2.23529 1.40299 1.67847 1.95819C1.12164 2.51339 0.780031 3.07179 0.524821 3.72939C0.277611 4.36539 0.108804 5.09178 0.0600024 6.15659C0.0112004 7.22299 0 7.56379 0 10.2798C0 12.9958 0.0112004 13.3366 0.0608024 14.4022C0.109604 15.467 0.278411 16.1934 0.525621 16.8294C0.780831 17.487 1.12244 18.0454 1.67927 18.6006C2.23609 19.1558 2.79291 19.4982 3.45054 19.7542C4.08736 20.0014 4.81299 20.1702 5.87784 20.219C6.94428 20.2678 7.28509 20.2798 10.0004 20.2798C12.7157 20.2798 13.0573 20.2686 14.123 20.219C15.1878 20.1702 15.9142 20.0014 16.5503 19.7542C17.2079 19.4982 17.7655 19.1566 18.3215 18.6006C18.8776 18.0446 19.2192 17.487 19.4752 16.8294C19.7224 16.1934 19.892 15.467 19.94 14.4022C19.9888 13.335 20 12.995 20 10.2798C20 7.56459 19.9888 7.22299 19.94 6.15739C19.8912 5.09259 19.7224 4.36539 19.4752 3.73019C19.2192 3.07259 18.8776 2.51499 18.3215 1.95899C17.7655 1.40299 17.2079 1.05979 16.5519 0.804585C15.915 0.557385 15.1886 0.387785 14.1246 0.339785C13.0581 0.291785 12.7173 0.279785 10.0012 0.279785C7.28509 0.279785 6.94428 0.290985 5.87784 0.340585Z" fill="black"/>
</g>
<defs>
<clipPath id="clip0_307_1990">
<rect width="20" height="20" fill="white" transform="translate(0 0.279785)"/>
</clipPath>
</defs>
</svg>
