<svg width="20" height="21" viewBox="0 0 20 21" fill="none" xmlns="http://www.w3.org/2000/svg">
<g clip-path="url(#clip0_307_1991)">
<path d="M18.5625 0.279785H1.5C0.6875 0.279785 0 0.904785 0 1.71729V18.8423C0 19.6548 0.6875 20.2798 1.5 20.2798H18.5C19.3125 20.2798 20 19.6548 20 18.8423V1.71729C20 0.904785 19.3125 0.279785 18.5625 0.279785ZM6.0625 16.9673H3.0625V7.96729H6.0625V16.9673ZM4.5625 6.77979C3.5625 6.77979 2.9375 6.09229 2.875 5.21729C2.875 4.34229 3.5625 3.65479 4.5625 3.65479C5.625 3.65479 6.25 4.34229 6.25 5.21729C6.25 6.09229 5.625 6.77979 4.5625 6.77979ZM16.9375 16.9673H13.9375V12.1548C13.9375 10.9048 13.5 10.0923 12.4375 10.0923C11.5625 10.0923 11.0625 10.6548 10.875 11.2173C10.75 11.4048 10.75 11.7173 10.75 11.9673V17.0298H7.75C7.75 17.0298 7.8125 8.84229 7.75 7.90479H10.75V9.21729C11.1875 8.59229 11.875 7.71729 13.5 7.71729C15.4375 7.71729 16.9375 9.02979 16.9375 11.7798V16.9673Z" fill="black"/>
</g>
<defs>
<clipPath id="clip0_307_1991">
<rect width="20" height="20" fill="white" transform="translate(0 0.279785)"/>
</clipPath>
</defs>
</svg>
