<svg width="25" height="21" viewBox="0 0 25 21" fill="none" xmlns="http://www.w3.org/2000/svg">
<g clip-path="url(#clip0_307_1992)">
<path d="M7.85758 20.2798C17.2948 20.2798 22.4553 12.5874 22.4553 5.91462C22.4553 5.69469 22.4553 5.47977 22.4401 5.25984C23.4458 4.54508 24.3092 3.66038 25 2.64572C24.0654 3.05558 23.0699 3.32049 22.054 3.44045C23.1258 2.81067 23.9283 1.816 24.3092 0.646394C23.3035 1.2362 22.2013 1.65106 21.0534 1.87098C19.1081 -0.163333 15.8625 -0.258301 13.7952 1.65106C12.4644 2.88564 11.8956 4.72002 12.3121 6.47443C8.18265 6.2795 4.34275 4.36014 1.7371 1.20621C0.375864 3.51543 1.07172 6.46444 3.32182 7.94894C2.50406 7.92394 1.70662 7.70902 0.99553 7.31915C0.99553 7.33914 0.99553 7.35913 0.99553 7.38413C0.99553 9.78832 2.71739 11.8576 5.10971 12.3325C4.35291 12.5374 3.56054 12.5624 2.79358 12.4174C3.46404 14.4717 5.39415 15.8813 7.58838 15.9213C5.77001 17.3258 3.52499 18.0905 1.21902 18.0855C0.812678 18.0855 0.40126 18.0605 0 18.0105C2.34153 19.495 5.06908 20.2798 7.85758 20.2798Z" fill="black"/>
</g>
<defs>
<clipPath id="clip0_307_1992">
<rect width="25" height="20" fill="white" transform="translate(0 0.279785)"/>
</clipPath>
</defs>
</svg>
